<?xml version="1.0" standalone="no"?><!DOCTYPE svg PUBLIC "-//W3C//DTD SVG 1.1//EN" "http://www.w3.org/Graphics/SVG/1.1/DTD/svg11.dtd"><svg t="1585817565947" class="icon" viewBox="0 0 1024 1024" version="1.1" xmlns="http://www.w3.org/2000/svg" p-id="1505" xmlns:xlink="http://www.w3.org/1999/xlink" width="200" height="200"><defs><style type="text/css"></style></defs><path d="M512 66.56c-245.76 0-445.44 199.68-445.44 445.44s199.68 445.44 445.44 445.44 445.44-199.68 445.44-445.44-199.68-445.44-445.44-445.44zM380.416 669.696l-25.6-95.744H262.144l-24.064 95.744h-31.232L291.84 353.792h31.744l90.624 315.904h-33.792z m126.976 0h-30.208L391.68 354.304h31.744L480.768 583.68c4.608 18.432 8.704 35.84 11.776 51.712 3.584-17.408 7.168-34.304 11.776-51.712l59.904-229.376h29.696l-86.528 315.392z m310.272-44.032c-14.336 16.384-29.184 28.672-44.544 36.864-15.36 8.192-31.232 12.288-47.104 12.288-21.504 0-41.472-6.656-59.392-19.968-17.92-13.312-31.232-32.256-40.448-57.856-9.216-25.088-13.824-53.248-13.824-83.968 0-30.72 4.608-59.392 13.312-86.016 9.216-26.624 22.016-46.592 38.912-59.392s36.352-19.456 58.368-19.456c15.872 0 30.208 3.584 43.52 11.264 12.8 7.168 23.04 17.92 30.208 30.72 7.168 13.312 12.8 30.208 16.896 51.712l-26.624 10.24c-3.072-15.872-7.68-28.672-12.288-37.888-5.12-9.216-11.776-16.384-20.992-22.016-9.216-5.632-19.456-8.192-30.72-8.192-13.312 0-25.088 3.072-34.816 8.704-9.728 5.632-17.408 13.312-23.552 23.04-6.144 9.728-10.752 19.968-13.824 31.232-5.632 19.456-8.704 40.448-8.704 63.488 0 28.16 3.584 51.712 10.24 70.656 6.656 18.944 16.896 32.768 29.696 41.984 12.8 9.216 26.624 13.824 41.472 13.824 12.8 0 25.088-3.584 37.376-10.24 12.288-7.168 20.992-14.336 27.648-22.528v-58.88h-65.024v-36.864h93.696v117.248z" p-id="1506"></path><path d="M306.688 387.072c-3.072 20.48-6.656 40.448-11.776 60.416l-24.064 92.672h74.752L322.56 452.608c-7.168-26.624-12.288-48.128-15.872-65.536z" p-id="1507"></path></svg>