<?xml version="1.0" standalone="no"?><!DOCTYPE svg PUBLIC "-//W3C//DTD SVG 1.1//EN" "http://www.w3.org/Graphics/SVG/1.1/DTD/svg11.dtd"><svg t="1585817492904" class="icon" viewBox="0 0 1024 1024" version="1.1" xmlns="http://www.w3.org/2000/svg" p-id="1196" xmlns:xlink="http://www.w3.org/1999/xlink" width="200" height="200"><defs><style type="text/css"></style></defs><path d="M616.064 517.568l-78.08 0L537.984 387.456c0-28.736-23.232-52.032-52.032-52.032S433.92 358.72 433.92 387.456l0 182.208c0 28.736 23.296 52.032 52.032 52.032l130.048 0c28.736 0 52.032-23.296 52.032-52.032C668.096 540.928 644.8 517.568 616.064 517.568zM329.792 101.248c0 0-105.664-83.776-208.192 0C19.2 184.96 95.616 309.376 95.616 309.376 169.6 169.536 329.792 101.248 329.792 101.248zM512 127.296c-229.952 0-416.384 186.432-416.384 416.384C95.616 773.568 282.048 960 512 960s416.384-186.432 416.384-416.32C928.384 313.728 741.952 127.296 512 127.296zM512 855.872c-172.48 0-312.256-139.84-312.256-312.192 0-172.48 139.776-312.32 312.256-312.32 172.416 0 312.256 139.84 312.256 312.32C824.256 716.032 684.416 855.872 512 855.872zM902.4 101.248c-102.528-83.776-208.192 0-208.192 0s160.192 68.288 234.176 208.192C928.384 309.376 1004.8 184.96 902.4 101.248z" p-id="1197"></path></svg>